# xmcd CD database file
#
# Track frame offsets:
#	150
#	20504
#	41175
#	60887
#	79770
#	99734
#	120626
#	144917
#	159371
#	172348
#
# Disc length: 2526 seconds
#
# Revision: 0
# Processed by: cddbd v1.5.2PL0 Copyright (c) Steve Scherf et al.
# Submitted via: CDex 1.51
#
DISCID=7e09dc0a
DTITLE=David Tanganelli - Up
DYEAR=2016
DGENRE=Blues
TTITLE0=The Black Cat Swing
TTITLE1=A Hold On Me
TTITLE2=Who's Sorry Now? w JJJachson
TTITLE3=Lucille Queen, dedicated to BBKing
TTITLE4=All I Need
TTITLE5=Dance Machine
TTITLE6=Don't Give Up On Me
TTITLE7=Johnny and June, w Rachel Zeigler
TTITLE8=On My Way
TTITLE9=Nunca Antes, w Magnolia Blues Rock
EXTD=YEAR: 2016
EXTT0=
EXTT1=
EXTT2=
EXTT3=
EXTT4=
EXTT5=
EXTT6=
EXTT7=
EXTT8=
EXTT9=
PLAYORDER=
